<svg width="25" height="25" viewBox="0 0 25 25" fill="none" xmlns="http://www.w3.org/2000/svg">
<path d="M10.7385 8.16533C10.6458 8.25685 10.5723 8.36586 10.5221 8.48602C10.4719 8.60618 10.446 8.73511 10.446 8.86533C10.446 8.99556 10.4719 9.12449 10.5221 9.24465C10.5723 9.36481 10.6458 9.47381 10.7385 9.56533L12.6385 11.4653H3.43848C2.88848 11.4653 2.43848 11.9153 2.43848 12.4653C2.43848 13.0153 2.88848 13.4653 3.43848 13.4653H12.6385L10.7385 15.3653C10.6458 15.4569 10.5723 15.5659 10.5221 15.686C10.4719 15.8062 10.446 15.9351 10.446 16.0653C10.446 16.1956 10.4719 16.3245 10.5221 16.4446C10.5723 16.5648 10.6458 16.6738 10.7385 16.7653C11.1285 17.1553 11.7485 17.1553 12.1385 16.7653L15.7285 13.1753C15.8212 13.0828 15.8947 12.9729 15.9449 12.852C15.9951 12.731 16.0209 12.6013 16.0209 12.4703C16.0209 12.3394 15.9951 12.2097 15.9449 12.0887C15.8947 11.9677 15.8212 11.8578 15.7285 11.7653L12.1385 8.16533C12.047 8.07269 11.938 7.99914 11.8178 7.94894C11.6976 7.89874 11.5687 7.87289 11.4385 7.87289C11.3083 7.87289 11.1793 7.89874 11.0592 7.94894C10.939 7.99914 10.83 8.07269 10.7385 8.16533ZM20.4385 19.4653H13.4385C12.8885 19.4653 12.4385 19.9153 12.4385 20.4653C12.4385 21.0153 12.8885 21.4653 13.4385 21.4653H20.4385C21.5385 21.4653 22.4385 20.5653 22.4385 19.4653V5.46533C22.4385 4.36533 21.5385 3.46533 20.4385 3.46533H13.4385C12.8885 3.46533 12.4385 3.91533 12.4385 4.46533C12.4385 5.01533 12.8885 5.46533 13.4385 5.46533H20.4385V19.4653Z" fill="white"/>
</svg>
