<svg width="33" height="33" viewBox="0 0 33 33" fill="none" xmlns="http://www.w3.org/2000/svg">
<path d="M12.9862 4.77881C10.6663 3.67116 7.42355 3.12857 3.08219 3.1093C2.67275 3.10374 2.27135 3.22313 1.93151 3.45155C1.65257 3.6401 1.42423 3.8943 1.26658 4.1918C1.10893 4.4893 1.0268 4.82098 1.02741 5.15766V23.5287C1.02741 24.7705 1.91096 25.7074 3.08219 25.7074C7.64572 25.7074 12.2234 26.1337 14.9652 28.7253C15.0027 28.761 15.0499 28.7848 15.1008 28.7938C15.1517 28.8028 15.2042 28.7967 15.2517 28.7762C15.2992 28.7557 15.3395 28.7217 15.3679 28.6784C15.3962 28.6351 15.4111 28.5844 15.4109 28.5327V6.88625C15.411 6.7402 15.3797 6.59583 15.3193 6.4629C15.2588 6.32997 15.1704 6.21157 15.0603 6.1157C14.4322 5.57879 13.7346 5.1291 12.9862 4.77881ZM30.945 3.44963C30.605 3.22177 30.2036 3.10305 29.7943 3.1093C25.453 3.12857 22.2103 3.66859 19.8903 4.77881C19.142 5.12846 18.4441 5.57727 17.8156 6.11314C17.7057 6.20917 17.6176 6.32761 17.5572 6.46052C17.4968 6.59342 17.4656 6.73771 17.4656 6.88368V28.5314C17.4656 28.5811 17.4803 28.6297 17.5077 28.6711C17.5352 28.7125 17.5743 28.7449 17.6201 28.7642C17.666 28.7835 17.7164 28.7888 17.7653 28.7795C17.8141 28.7702 17.8591 28.7466 17.8946 28.7119C19.5429 27.0745 22.4356 25.7055 29.7969 25.7061C30.3419 25.7061 30.8645 25.4896 31.2498 25.1043C31.6352 24.7189 31.8517 24.1963 31.8517 23.6513V5.15831C31.8524 4.82095 31.7701 4.4886 31.612 4.1906C31.4538 3.89261 31.2248 3.63812 30.945 3.44963Z" fill="#E44320"/>
</svg>
